<svg width="40" height="40" viewBox="0 0 40 40" fill="none" xmlns="http://www.w3.org/2000/svg">
<path d="M3.75191 15.0284H36.2479C36.2479 15.0284 37.1559 14.2844 36.2479 13.3364L20.0039 3.77637L3.75191 13.3324C3.75191 13.3324 2.62791 14.3444 3.75191 15.0284ZM37.3079 34.9124L35.3479 33.2084C35.2399 33.1164 34.9959 33.0404 34.7959 33.0404L5.60391 33.0844C5.40791 33.0844 5.14791 33.1564 5.02791 33.2444L2.71991 34.9204C2.59991 35.0084 2.50391 35.1684 2.50391 35.2764V36.0244C2.50391 36.1324 2.66391 36.2244 2.86391 36.2244H37.1479C37.3439 36.2244 37.5079 36.1364 37.5079 36.0244V35.2804C37.4999 35.1684 37.4119 35.0044 37.3079 34.9124ZM32.1599 16.3524H35.1519V31.3484H32.1599V16.3524ZM27.2639 16.3524H30.2559V31.3484H27.2639V16.3524ZM10.2079 16.3524H13.1999V31.3484H10.2079V16.3524ZM5.31191 16.3524H8.30391V31.3484H5.31191V16.3524ZM20.0639 31.3284C20.2919 31.3284 20.5199 31.2964 20.7359 31.2324V29.4164C21.6639 29.2084 22.3719 28.8084 22.8599 28.2164C23.3439 27.6284 23.5879 26.9044 23.5879 26.0484C23.5879 25.5364 23.5239 25.1124 23.3999 24.7724C23.2759 24.4324 23.0999 24.1444 22.8759 23.9124C22.6519 23.6764 22.3759 23.4764 22.0519 23.3084C21.7279 23.1404 21.3679 22.9724 20.9719 22.8084L20.0319 22.4164C19.8759 22.3524 19.7199 22.2844 19.5639 22.2124C19.4079 22.1404 19.2679 22.0524 19.1399 21.9524C19.0159 21.8524 18.9159 21.7324 18.8439 21.5844C18.7719 21.4364 18.7359 21.2604 18.7359 21.0524C18.7359 20.8124 18.7839 20.6164 18.8759 20.4644C18.9679 20.3124 19.0879 20.1964 19.2359 20.1124C19.3839 20.0284 19.5479 19.9724 19.7279 19.9484C19.9119 19.9244 20.0919 19.9084 20.2679 19.9084C20.5599 19.9084 20.8199 19.9204 21.0519 19.9484C21.2799 19.9764 21.4879 20.0084 21.6719 20.0484C21.8559 20.0884 22.0279 20.1444 22.1879 20.2044C22.3479 20.2684 22.5079 20.3284 22.6639 20.3924C22.9359 19.8084 23.1039 19.2124 23.1639 18.6084C22.7359 18.4604 22.3279 18.3444 21.9439 18.2564C21.5559 18.1684 21.1559 18.1084 20.7359 18.0764V16.4644C20.4959 16.4004 20.2679 16.3724 20.0479 16.3724C19.8199 16.3724 19.5919 16.4044 19.3759 16.4644V18.1244C18.4359 18.2404 17.6999 18.5684 17.1679 19.1124C16.6359 19.6564 16.3679 20.3964 16.3679 21.3364C16.3679 21.7764 16.4239 22.1444 16.5319 22.4484C16.6399 22.7524 16.7999 23.0164 16.9999 23.2404C17.2039 23.4644 17.4479 23.6564 17.7279 23.8204C18.0079 23.9844 18.3239 24.1364 18.6679 24.2844L19.4999 24.6444C19.6759 24.7284 19.8599 24.8084 20.0479 24.8804C20.2359 24.9524 20.4039 25.0404 20.5559 25.1484C20.7079 25.2524 20.8319 25.3844 20.9319 25.5484C21.0319 25.7084 21.0799 25.9164 21.0799 26.1684C21.0799 26.6684 20.8999 27.0324 20.5399 27.2564C20.1799 27.4804 19.6719 27.5924 19.0119 27.5924C18.5719 27.5924 18.1599 27.5604 17.7759 27.4924C17.3879 27.4244 16.9759 27.3004 16.5399 27.1244C16.4239 27.4604 16.3239 27.7804 16.2439 28.0884C16.1599 28.3964 16.1039 28.7004 16.0719 29.0044C16.3319 29.1084 16.5839 29.1964 16.8239 29.2724C17.0639 29.3444 17.3079 29.4044 17.5519 29.4524C17.7959 29.5004 18.0559 29.5324 18.3279 29.5524C18.5999 29.5724 18.9079 29.5844 19.2519 29.5844H19.3759V31.2444C19.6039 31.2964 19.8359 31.3284 20.0639 31.3284Z" fill="#558EFF"/>
</svg>
