<svg width="24" height="24" viewBox="0 0 24 24" fill="none" xmlns="http://www.w3.org/2000/svg">
<path d="M20.2223 18.3815C20.1479 18.2135 20.1311 17.9687 20.1935 17.7959C20.6759 16.4279 21.1703 15.0671 21.6839 13.7087C22.2311 12.2663 22.6559 10.8143 22.4423 9.2375C22.1999 7.4471 21.4655 5.8967 20.1431 4.6727C19.4975 4.0775 18.7415 3.6095 17.9927 3.0527C18.0503 2.8943 18.1439 2.6471 18.2351 2.3999C18.3839 1.9919 18.2687 1.6727 17.9255 1.5455C17.5727 1.4159 17.2775 1.5623 17.1119 1.9583C17.0039 2.2127 16.9079 2.4695 16.8023 2.7335C15.8039 2.4887 14.8175 2.3903 13.8167 2.5343C10.8335 2.9615 8.6807 4.5263 7.5167 7.3175C6.8039 9.0335 6.2159 10.8023 5.5823 12.5495C5.5055 12.7655 5.3831 12.8927 5.1743 12.9863C4.1135 13.4615 3.0599 13.9511 1.9991 14.4335C1.7159 14.5607 1.5047 14.7407 1.5119 15.0767C1.5191 15.4247 1.7639 15.5639 2.0519 15.6671C4.0319 16.3775 6.0071 17.0951 7.9919 17.7911C8.2895 17.8967 8.3927 18.0143 8.3759 18.3431C8.2751 20.5463 10.3415 22.1879 12.4799 21.6287C13.3463 21.4031 14.0063 20.8967 14.5031 20.1431C14.6063 20.1791 14.6999 20.2127 14.7935 20.2439C16.8047 20.9639 18.8159 21.6839 20.8271 22.4087C21.1295 22.5167 21.4079 22.5623 21.6575 22.3055C21.9167 22.0367 21.8087 21.7607 21.6743 21.4775C21.1799 20.4527 20.6879 19.4231 20.2223 18.3815ZM11.1191 20.4599C10.1615 20.1839 9.5279 19.3247 9.5951 18.3455C10.8479 18.7919 12.0743 19.2311 13.3055 19.6703C12.9551 20.3423 11.9495 20.6999 11.1191 20.4599Z" fill="#CACCCF"/>
</svg>
